<svg width="24" height="24" viewBox="0 0 24 24" fill="none" xmlns="http://www.w3.org/2000/svg">
<path d="M14 0.999757C14.6584 0.993207 15.3116 1.11806 15.9211 1.36702C16.5307 1.61597 17.0845 1.98402 17.5501 2.44963C18.0157 2.91523 18.3838 3.46903 18.6327 4.07862C18.8817 4.6882 19.0065 5.34133 19 5.99976V5.99976" stroke="#0FD08B" stroke-width="2" stroke-miterlimit="10" stroke-linecap="square"/>
<path d="M5 18C4.99345 18.6584 5.11831 19.3116 5.36726 19.9211C5.61622 20.5307 5.98427 21.0845 6.44987 21.5501C6.91547 22.0157 7.46928 22.3838 8.07886 22.6327C8.68845 22.8817 9.34157 23.0065 10 23V23" stroke="#0FD08B" stroke-width="2" stroke-miterlimit="10" stroke-linecap="square"/>
<path d="M22 16H15C14.7348 16 14.4804 15.9514 14.2929 15.8648C14.1054 15.7783 14 15.6609 14 15.5385V10.4615C14 10.3391 14.1054 10.2217 14.2929 10.1352C14.4804 10.0486 14.7348 10 15 10H22C22.2652 10 22.5196 10.0486 22.7071 10.1352C22.8946 10.2217 23 10.3391 23 10.4615V15.5385C23 15.6609 22.8946 15.7783 22.7071 15.8648C22.5196 15.9514 22.2652 16 22 16Z" fill="#CFF6E8"/>
<path d="M9 14H2C1.73478 14 1.48043 13.9433 1.29289 13.8423C1.10536 13.7413 1 13.6043 1 13.4615V7.53846C1 7.39565 1.10536 7.25869 1.29289 7.15771C1.48043 7.05673 1.73478 7 2 7H9C9.26522 7 9.51957 7.05673 9.70711 7.15771C9.89464 7.25869 10 7.39565 10 7.53846V13.4615C10 13.6043 9.89464 13.7413 9.70711 13.8423C9.51957 13.9433 9.26522 14 9 14Z" fill="#CFF6E8"/>
<path d="M9 14H2C1.73478 14 1.48043 13.8946 1.29289 13.7071C1.10536 13.5196 1 13.2652 1 13V2C1 1.73478 1.10536 1.48043 1.29289 1.29289C1.48043 1.10536 1.73478 1 2 1H9C9.26522 1 9.51957 1.10536 9.70711 1.29289C9.89464 1.48043 10 1.73478 10 2V13C10 13.2652 9.89464 13.5196 9.70711 13.7071C9.51957 13.8946 9.26522 14 9 14Z" stroke="#0FD08B" stroke-width="2" stroke-miterlimit="10" stroke-linecap="square"/>
<path d="M1 10H10" stroke="#0FD08B" stroke-width="2" stroke-miterlimit="10" stroke-linecap="square"/>
<path d="M22 23H15C14.7348 23 14.4804 22.8946 14.2929 22.7071C14.1054 22.5196 14 22.2652 14 22V11C14 10.7348 14.1054 10.4804 14.2929 10.2929C14.4804 10.1054 14.7348 10 15 10H22C22.2652 10 22.5196 10.1054 22.7071 10.2929C22.8946 10.4804 23 10.7348 23 11V22C23 22.2652 22.8946 22.5196 22.7071 22.7071C22.5196 22.8946 22.2652 23 22 23Z" stroke="#0FD08B" stroke-width="2" stroke-miterlimit="10" stroke-linecap="square"/>
<path d="M14 19H23" stroke="#0FD08B" stroke-width="2" stroke-miterlimit="10" stroke-linecap="square"/>
</svg>
